PathFileType	4	(X/Y/Z)	RBDS05\RBDS05runT45.trc
DataRate	CameraRate	NumFrames	NumMarkers	Units	OrigDataRate	OrigDataStartFrame	OrigNumFrames
150.000000	150.000000	4	32	mm	150.000000	0	4500
Frame#	Time	L.ASIS			L.Heel.Bottom			L.Heel.Lateral			L.Heel.Top			L.Iliac.Crest			L.MT1			L.MT5			L.PSIS			L.Shank.Bottom.Lateral			L.Shank.Bottom.Medial			L.Shank.Top.Lateral			L.Shank.Top.Medial			L.Thigh.Bottom.Lateral			L.Thigh.Bottom.Medial			L.Thigh.Top.Lateral			L.Thigh.Top.Medial			R.ASIS			R.ASY			R.Heel.Bottom			R.Heel.Lateral			R.Heel.Top			R.Iliac.Crest			R.MT5			R.PSIS			R.Shank.Bottom.Lateral			R.Shank.Bottom.Medial			R.Shank.Top.Lateral			R.Shank.Top.Medial			R.Thigh.Bottom.Lateral			R.Thigh.Bottom.Medial			R.Thigh.Top.Lateral			R.Thigh.Top.Medial			
		X1	Y1	Z1	X2	Y2	Z2	X3	Y3	Z3	X4	Y4	Z4	X5	Y5	Z5	X6	Y6	Z6	X7	Y7	Z7	X8	Y8	Z8	X9	Y9	Z9	X10	Y10	Z10	X11	Y11	Z11	X12	Y12	Z12	X13	Y13	Z13	X14	Y14	Z14	X15	Y15	Z15	X16	Y16	Z16	X17	Y17	Z17	X18	Y18	Z18	X19	Y19	Z19	X20	Y20	Z20	X21	Y21	Z21	X22	Y22	Z22	X23	Y23	Z23	X24	Y24	Z24	X25	Y25	Z25	X26	Y26	Z26	X27	Y27	Z27	X28	Y28	Z28	X29	Y29	Z29	X30	Y30	Z30	X31	Y31	Z31	X32	Y32	Z32	

1	0	2396.030499932547	956.9495736050312	923.4616433459813	2581.452857503581	35.7747492899485	980.8005505006686	2597.816087028114	67.99903794021749	937.4839766264721	2564.030722288388	82.06996341851388	981.0882034804407	2331.893307977807	1029.53759877621	876.3892683934743	2744.850941919947	162.1042493828198	1014.931645180687	2726.738276253876	137.6586700665555	913.0223353953106	2247.180513290846	1005.774227631275	976.5757347428809	2570.550082757066	208.6619435785335	920.9861347897739	2533.842314894224	195.5768817890398	954.5676226676578	2535.69538967463	280.8051519112055	906.0152108424584	2498.06711863628	271.3098429346466	942.164021364916	2446.067143254394	626.444134466176	872.5597864720093	2392.407241738546	593.3170797892462	908.6621095546419	2381.957860250421	716.2813868560864	865.529583000185	2332.298264570537	686.2832978718714	901.4836782573713	2395.517147273886	946.5135306462998	1142.04036316124	1748.837460789174	330.5740428140161	1063.507730608534	1710.862370825807	500.6371975082861	1008.256624173046	1711.807600049002	479.9065557113388	1053.177205811258	1753.916961840501	486.9023718239538	1022.400121956972	2363.158540431069	1009.677533246742	1162.389966777913	1679.518581971163	335.6727534914394	1105.486307331873	2256.021075214565	1008.004877138157	1072.884090234812	1832.50464884789	461.0686428304874	1102.806036122086	1830.472628241484	494.5584351767379	1059.679556597854	1905.133303738608	492.9382409502893	1121.489553889466	1902.380292955004	524.4248418484916	1078.267865262003	2192.243552933267	595.1603303272298	1182.507466364005	2132.959190658042	614.3771739302729	1142.999798317087	2216.444006190003	702.2382259869707	1194.299096110295	2160.633484883188	720.3877215723923	1155.910294777981	
2	0.006666666666666667	2396.519226227743	953.3330864511747	922.2611054649572	2567.059684668178	30.88389101729453	980.4209945869262	2585.051513888076	61.72544735229935	937.1192455034085	2552.142283061474	77.65448019483357	980.5852542169541	2331.374651554717	1025.82464317045	875.7280819244869	2734.599246424826	149.3893560890209	1015.170659781655	2715.936571119332	125.2027483584715	913.5262533195422	2247.72739150279	1001.200576919392	976.4566076936094	2562.343574603607	200.8531710605945	920.3826698024733	2524.875745316834	188.3620387169548	953.4029263413992	2529.381417371927	273.7625758869364	905.2806361270905	2490.732379286104	265.0230418486134	940.7790022072165	2444.753897451772	621.2866072831558	873.1099272803145	2390.43700126017	588.4007741311855	908.5155283292866	2381.111681160893	711.3934930922867	865.4116752606226	2331.040509991808	681.7677737570955	901.1350350842869	2397.088161319895	943.2642621462695	1141.211530014954	1753.529763215606	341.220408782415	1062.367079179502	1722.888560292944	512.870814447565	1008.078875916383	1722.874637389551	492.0857091193977	1052.909146999018	1765.425742383256	497.3308959746862	1022.3098062237	2364.109335650794	1006.291774546556	1161.817250117068	1684.619778345924	349.193026871187	1103.830973388075	2256.887425259738	1003.575014126186	1072.597616997521	1841.854385892682	467.4552877224244	1102.953566295424	1841.540438312537	501.3168096694509	1060.060296253144	1915.432982978793	495.8510225227764	1122.451978500839	1914.341046107367	527.7241226235565	1079.583184770227	2200.225590772521	588.3487021760105	1184.609775075614	2140.387985822912	606.1472505501062	1145.178422701607	2222.391159074387	695.9950606197217	1195.555293548539	2165.927492277963	712.8510432769425	1157.44819246617	
3	0.01333333333333333	2396.946312047094	949.6110947498953	921.0530950180497	2551.838351421014	26.41965664743309	980.1224980336925	2571.500859104062	55.85604742459804	936.8719837764684	2539.557297169161	73.6261313518452	980.2473275782077	2330.926011176356	1021.966970214597	875.0321999257022	2723.60339311625	136.6169752400262	1015.51144060024	2704.381426449361	112.8619155578695	914.095461680285	2248.185411298117	996.6045234899059	976.3553925589324	2553.703538295908	193.2358539847832	919.8992255512665	2515.469822227677	181.4439691607289	952.3386459597907	2522.773651951835	266.910938114265	904.6180791634846	2483.129657632557	259.0276433645427	939.4526957881974	2443.425364438768	616.222156348107	873.5466004286884	2388.504597487229	583.5506638687208	908.301982453252	2380.194233950031	706.560319122651	865.2233414344868	2329.755919754855	677.2738418495641	900.7426870834192	2398.628607377281	939.924139454345	1140.352930852408	1758.785127020926	351.4593618161384	1061.293962301153	1735.278595329529	524.6231311525548	1008.038534660874	1734.319557519283	503.7628703512215	1052.780009720087	1777.291515047408	507.3263281632329	1022.338730529112	2365.098859223691	1002.75738792106	1161.24672479274	1690.283948966906	362.1968059950948	1102.304413717815	2257.681014263188	999.0890689963826	1072.330471502999	1851.598335559099	473.4625206971858	1103.191244547402	1852.970531094643	507.6996561212369	1060.554804759935	1926.080420468669	498.4364792173553	1123.483887875264	1926.614391130428	530.6943874811892	1080.981547385528	2208.417050038873	581.4384219864528	1186.671063562641	2148.003290696928	597.771911821994	1147.367905161939	2228.474030594361	689.6409621786112	1196.786851215541	2171.335629956916	705.1523492051208	1159.004702261557	
4	0.02	2397.229713506596	945.6886347347934	919.8199950437436	2535.085431202213	22.74661575895858	979.9734654586055	2556.482849930796	50.74555491620159	936.8410930415948	2525.667166487396	70.31173742811997	980.2145868444909	2330.561097525226	1017.818869859567	874.2794657804477	2711.201936969379	123.787106944486	1016.031109333957	2691.403534270692	100.784351946746	914.7779500500959	2248.455966488968	991.9545278815435	976.3012242942741	2544.259333967954	185.9737914663974	919.6422675404239	2505.2490714076	175.0844398549613	951.4565063623838	2515.636077138717	260.4088469935388	904.0951300821206	2475.044710522596	253.575213597672	938.231695292711	2442.080793982077	611.3206242852883	873.7722488170288	2386.658549531227	578.8097897886423	907.9703595213306	2379.147856016778	701.8209720557508	864.9037929973363	2328.428163959401	672.8081798082296	900.2724964332785	2400.093152827062	936.3874334465535	1139.433420970557	1765.09732164644	360.9294731452605	1060.338623791816	1748.356931388533	535.4936130131749	1008.297806887613	1746.481892377515	514.505564200233	1052.94707268377	1789.838010698913	516.5223386100075	1022.628482825095	2366.133152782597	998.9191655416117	1160.685444029136	1696.997086800857	374.2103581246747	1101.010294937786	2258.321828260934	994.4786531106868	1072.107111546074	1862.099257444347	478.7462861625594	1103.61441944507	1865.101683975385	513.3763550149481	1061.290647134332	1937.406424121867	500.3868617200536	1124.657974681894	1939.503879747719	533.0350452607561	1082.552564836478	2217.030177077963	574.3211790003403	1188.65838867117	2156.005704094019	589.0915122506736	1149.5736634951	2234.823743598079	683.0576571633918	1197.971455877511	2176.974863602979	697.1188092848612	1160.593768735241	
